<svg xmlns="http://www.w3.org/2000/svg" viewBox="0 0 89.44 89.44"><defs><style>.cls-1{fill:none;stroke:#e7e8e9;stroke-miterlimit:10;stroke-width:4px;}.cls-2{fill:#fff;}</style></defs><g id="Layer_2" data-name="Layer 2"><g id="OBJECTS"><path class="cls-1" d="M44.72,87.44h0A42.72,42.72,0,0,1,2,44.72H2A42.72,42.72,0,0,1,44.72,2h0A42.72,42.72,0,0,1,87.44,44.72h0A42.72,42.72,0,0,1,44.72,87.44Z"/><path class="cls-2" d="M52.11,46.64H45.37v21.7h-10V46.64H30.61v-8.5h4.76v-5.5c0-3.93,1.86-10.09,10.08-10.09l7.41,0v8.25H47.49a2,2,0,0,0-2.12,2.32v5H53Z"/></g></g></svg>