<svg xmlns="http://www.w3.org/2000/svg" viewBox="0 0 89.44 89.44"><defs><style>.cls-1{fill:none;stroke:#e7e8e9;stroke-miterlimit:10;stroke-width:4px;}.cls-2{fill:#fff;}</style></defs><g id="Layer_2" data-name="Layer 2"><g id="OBJECTS"><path class="cls-1" d="M44.72,87.44h0A42.72,42.72,0,0,1,2,44.72H2A42.72,42.72,0,0,1,44.72,2h0A42.72,42.72,0,0,1,87.44,44.72h0A42.72,42.72,0,0,1,44.72,87.44Z"/><path class="cls-2" d="M65.39,47.62V62.44H56.8V48.62c0-3.48-1.24-5.85-4.35-5.85a4.69,4.69,0,0,0-4.4,3.15A5.74,5.74,0,0,0,47.76,48V62.44H39.17s.12-23.41,0-25.84h8.59v3.66s0,.06,0,.09h0v-.09A8.56,8.56,0,0,1,55.51,36c5.65,0,9.88,3.69,9.88,11.62ZM25.84,62.44h8.58V36.6H25.84Zm8.84-34.6a4.42,4.42,0,1,1-4.42-4.43A4.42,4.42,0,0,1,34.68,27.84Z"/></g></g></svg>