<svg xmlns="http://www.w3.org/2000/svg" viewBox="0 0 163.13 126.3"><defs><style>.cls-1{fill:#fff;}</style></defs><g id="Layer_2" data-name="Layer 2"><g id="Layer_1-2" data-name="Layer 1"><path class="cls-1" d="M148.56,126.3a14,14,0,0,0,9.55-3.6L111.89,76.48l-3.2,2.3q-5.19,3.82-8.42,6a51.77,51.77,0,0,1-8.6,4.37,26.18,26.18,0,0,1-10,2.23h-.18a26.18,26.18,0,0,1-10-2.23,52.33,52.33,0,0,1-8.61-4.37q-3.23-2.14-8.42-6c-1-.71-2-1.49-3.19-2.32L5,122.7a13.94,13.94,0,0,0,9.54,3.6Z"/><path class="cls-1" d="M11.07,47.37a47.78,47.78,0,0,1-9.19-7.92v70.32L42.61,69Q30.39,60.5,11.07,47.37Z"/><path class="cls-1" d="M152.15,47.37Q133.55,60,120.53,69.05l40.72,40.72V39.45A50,50,0,0,1,152.15,47.37Z"/><path class="cls-1" d="M148.56,0h-134q-7,0-10.78,4.73A18.38,18.38,0,0,0,0,16.57Q0,22.3,5,29A44.92,44.92,0,0,0,15.66,39.51q3.09,2.19,18.66,13c5.6,3.88,10.47,7.27,14.66,10.19,3.57,2.48,6.65,4.64,9.19,6.43l1.36,1L62,71.87Q65,74,67,75.33t4.73,3a28.18,28.18,0,0,0,5.23,2.46,14.68,14.68,0,0,0,4.56.82h.18a14.67,14.67,0,0,0,4.55-.82,27.88,27.88,0,0,0,5.23-2.46q2.78-1.64,4.74-3t4.91-3.46l2.51-1.81,1.36-1,9.22-6.41,33.39-23.18a43.28,43.28,0,0,0,11.1-11.2,24.08,24.08,0,0,0,4.46-13.74,14,14,0,0,0-4.32-10.29A14.1,14.1,0,0,0,148.56,0Z"/></g></g></svg>