<svg xmlns="http://www.w3.org/2000/svg" viewBox="0 0 89.44 89.44"><defs><style>.cls-1{fill:none;stroke:#e7e8e9;stroke-miterlimit:10;stroke-width:4px;}.cls-2{fill:#fff;}</style></defs><g id="Layer_2" data-name="Layer 2"><g id="OBJECTS"><path class="cls-1" d="M44.72,87.44h0A42.72,42.72,0,0,1,2,44.72H2A42.72,42.72,0,0,1,44.72,2h0A42.72,42.72,0,0,1,87.44,44.72h0A42.72,42.72,0,0,1,44.72,87.44Z"/><path class="cls-2" d="M68.7,32.5a18.19,18.19,0,0,1-5.21,1.43,9.13,9.13,0,0,0,4-5,18.15,18.15,0,0,1-5.76,2.19,9.06,9.06,0,0,0-15.67,6.21,9.29,9.29,0,0,0,.23,2.06A25.72,25.72,0,0,1,27.6,29.91,9.09,9.09,0,0,0,30.41,42a9.08,9.08,0,0,1-4.11-1.13V41a9.09,9.09,0,0,0,7.27,8.89,9.36,9.36,0,0,1-2.38.31A8.7,8.7,0,0,1,29.48,50,9.06,9.06,0,0,0,38,56.32,18.15,18.15,0,0,1,26.69,60.2a19.28,19.28,0,0,1-2.16-.12,25.65,25.65,0,0,0,13.89,4.07c16.67,0,25.78-13.81,25.78-25.78,0-.4,0-.79,0-1.18A18.33,18.33,0,0,0,68.7,32.5Z"/></g></g></svg>