<svg xmlns="http://www.w3.org/2000/svg" viewBox="0 0 89.44 89.44"><defs><style>.cls-1{fill:none;stroke:#e7e8e9;stroke-miterlimit:10;stroke-width:4px;}.cls-2{fill:#fff;fill-rule:evenodd;}</style></defs><g id="Layer_2" data-name="Layer 2"><g id="OBJECTS"><path class="cls-1" d="M44.72,87.44h0A42.72,42.72,0,0,1,2,44.72H2A42.72,42.72,0,0,1,44.72,2h0A42.72,42.72,0,0,1,87.44,44.72h0A42.72,42.72,0,0,1,44.72,87.44Z"/><path class="cls-2" d="M66.83,36.51a6.66,6.66,0,0,0-6.67-6.67H28.9a6.66,6.66,0,0,0-6.67,6.67V54.39a6.67,6.67,0,0,0,6.67,6.67H60.16a6.67,6.67,0,0,0,6.67-6.67ZM40.07,53V36.2l12.74,8.39Z"/></g></g></svg>